  0
SECTION
  2
HEADER
  9
$ACADVER
  1
AC1009
  9
$EXTMIN
 10
0.0
 20
0.0
 30
0.0
  9
$EXTMAX
 10
1000.0
 20
1000.0
 30
0.0
  9
$FILLMODE
 70
 0
  9
$SPLFRAME
 70
 1
  0
ENDSEC
  0
SECTION
  2
TABLES
  0
TABLE
  2
LAYER
 70
1
  0
LAYER
  2
0
 70
     0
 62
     7
  6
CONTINUOUS
  0
ENDTAB
  0
ENDSEC
  0
SECTION
  2
ENTITIES
  0
LINE
  8
0
 62
     0
 10
159.432
 20
0.129536
 30
0.0
 11
154.105
 21
2.34267
 31
0.0
  0
LINE
  8
0
 62
     0
 10
154.105
 20
2.34267
 30
0.0
 11
148.587
 21
4.34908
 31
0.0
  0
LINE
  8
0
 62
     0
 10
148.587
 20
4.34908
 30
0.0
 11
142.898
 21
6.1626
 31
0.0
  0
LINE
  8
0
 62
     0
 10
142.898
 20
6.1626
 30
0.0
 11
137.062
 21
7.7997
 31
0.0
  0
LINE
  8
0
 62
     0
 10
137.062
 20
7.7997
 30
0.0
 11
131.098
 21
9.27421
 31
0.0
  0
LINE
  8
0
 62
     0
 10
131.098
 20
9.27421
 30
0.0
 11
125.028
 21
10.5999
 31
0.0
  0
LINE
  8
0
 62
     0
 10
125.028
 20
10.5999
 30
0.0
 11
118.874
 21
11.7933
 31
0.0
  0
LINE
  8
0
 62
     0
 10
118.874
 20
11.7933
 30
0.0
 11
112.657
 21
12.8681
 31
0.0
  0
LINE
  8
0
 62
     0
 10
112.657
 20
12.8681
 30
0.0
 11
106.4
 21
13.8369
 31
0.0
  0
LINE
  8
0
 62
     0
 10
106.4
 20
13.8369
 30
0.0
 11
100.122
 21
14.7175
 31
0.0
  0
LINE
  8
0
 62
     0
 10
100.122
 20
14.7175
 30
0.0
 11
93.8459
 21
15.5236
 31
0.0
  0
LINE
  8
0
 62
     0
 10
93.8459
 20
15.5236
 30
0.0
 11
87.5937
 21
16.2677
 31
0.0
  0
LINE
  8
0
 62
     0
 10
87.5937
 20
16.2677
 30
0.0
 11
81.3855
 21
16.9664
 31
0.0
  0
LINE
  8
0
 62
     0
 10
81.3855
 20
16.9664
 30
0.0
 11
75.2436
 21
17.6348
 31
0.0
  0
LINE
  8
0
 62
     0
 10
75.2436
 20
17.6348
 30
0.0
 11
69.19
 21
18.2852
 31
0.0
  0
LINE
  8
0
 62
     0
 10
69.19
 20
18.2852
 30
0.0
 11
63.2449
 21
18.9343
 31
0.0
  0
LINE
  8
0
 62
     0
 10
63.2449
 20
18.9343
 30
0.0
 11
57.4312
 21
19.5957
 31
0.0
  0
LINE
  8
0
 62
     0
 10
57.4312
 20
19.5957
 30
0.0
 11
51.7687
 21
20.2847
 31
0.0
  0
LINE
  8
0
 62
     0
 10
51.7687
 20
20.2847
 30
0.0
 11
46.2813
 21
21.0151
 31
0.0
  0
LINE
  8
0
 62
     0
 10
46.2813
 20
21.0151
 30
0.0
 11
40.9885
 21
21.8006
 31
0.0
  0
LINE
  8
0
 62
     0
 10
40.9885
 20
21.8006
 30
0.0
 11
35.9117
 21
22.6591
 31
0.0
  0
LINE
  8
0
 62
     0
 10
35.9117
 20
22.6591
 30
0.0
 11
31.0734
 21
23.6016
 31
0.0
  0
LINE
  8
0
 62
     0
 10
31.0734
 20
23.6016
 30
0.0
 11
26.4942
 21
24.6448
 31
0.0
  0
LINE
  8
0
 62
     0
 10
26.4942
 20
24.6448
 30
0.0
 11
22.1974
 21
25.8024
 31
0.0
  0
LINE
  8
0
 62
     0
 10
22.1974
 20
25.8024
 30
0.0
 11
18.2025
 21
27.0895
 31
0.0
  0
LINE
  8
0
 62
     0
 10
18.2025
 20
27.0895
 30
0.0
 11
14.5314
 21
28.5199
 31
0.0
  0
LINE
  8
0
 62
     0
 10
14.5314
 20
28.5199
 30
0.0
 11
11.2062
 21
30.1088
 31
0.0
  0
LINE
  8
0
 62
     0
 10
11.2062
 20
30.1088
 30
0.0
 11
8.24756
 21
31.8713
 31
0.0
  0
LINE
  8
0
 62
     0
 10
8.24756
 20
31.8713
 30
0.0
 11
5.67891
 21
33.8212
 31
0.0
  0
LINE
  8
0
 62
     0
 10
5.67891
 20
33.8212
 30
0.0
 11
3.51951
 21
35.9724
 31
0.0
  0
LINE
  8
0
 62
     0
 10
3.51951
 20
35.9724
 30
0.0
 11
1.79145
 21
38.3427
 31
0.0
  0
LINE
  8
0
 62
     0
 10
1.79145
 20
38.3427
 30
0.0
 11
0.516763
 21
40.9416
 31
0.0
  0
LINE
  8
0
 62
     0
 10
0.516763
 20
40.9416
 30
0.0
 11
0.179145
 21
43.7914
 31
0.0
  0
LINE
  8
0
 62
     0
 10
0.179145
 20
43.7914
 30
0.0
 11
1.11208
 21
47.0285
 31
0.0
  0
LINE
  8
0
 62
     0
 10
1.11208
 20
47.0285
 30
0.0
 11
3.28662
 21
50.3894
 31
0.0
  0
LINE
  8
0
 62
     0
 10
3.28662
 20
50.3894
 30
0.0
 11
6.67247
 21
53.6141
 31
0.0
  0
LINE
  8
0
 62
     0
 10
6.67247
 20
53.6141
 30
0.0
 11
11.2365
 21
56.4374
 31
0.0
  0
LINE
  8
0
 62
     0
 10
11.2365
 20
56.4374
 30
0.0
 11
16.9513
 21
58.601
 31
0.0
  0
LINE
  8
0
 62
     0
 10
16.9513
 20
58.601
 30
0.0
 11
23.7849
 21
59.8385
 31
0.0
  0
LINE
  8
0
 62
     0
 10
23.7849
 20
59.8385
 30
0.0
 11
31.7087
 21
59.8911
 31
0.0
  0
LINE
  8
0
 62
     0
 10
31.7087
 20
59.8911
 30
0.0
 11
36.2536
 21
59.4184
 31
0.0
  0
LINE
  8
0
 62
     0
 10
36.2536
 20
59.4184
 30
0.0
 11
41.202
 21
58.626
 31
0.0
  0
LINE
  8
0
 62
     0
 10
41.202
 20
58.626
 30
0.0
 11
46.5638
 21
57.4918
 31
0.0
  0
LINE
  8
0
 62
     0
 10
46.5638
 20
57.4918
 30
0.0
 11
52.3515
 21
55.9883
 31
0.0
  0
LINE
  8
0
 62
     0
 10
52.3515
 20
55.9883
 30
0.0
 11
58.5777
 21
54.0921
 31
0.0
  0
LINE
  8
0
 62
     0
 10
58.5777
 20
54.0921
 30
0.0
 11
65.2544
 21
51.7783
 31
0.0
  0
LINE
  8
0
 62
     0
 10
65.2544
 20
51.7783
 30
0.0
 11
72.3925
 21
49.0195
 31
0.0
  0
LINE
  8
0
 62
     0
 10
72.3925
 20
49.0195
 30
0.0
 11
80.0061
 21
45.7951
 31
0.0
  0
LINE
  8
0
 62
     0
 10
80.0061
 20
45.7951
 30
0.0
 11
88.1048
 21
42.0758
 31
0.0
  0
LINE
  8
0
 62
     0
 10
88.1048
 20
42.0758
 30
0.0
 11
96.7024
 21
37.8382
 31
0.0
  0
LINE
  8
0
 62
     0
 10
96.7024
 20
37.8382
 30
0.0
 11
105.811
 21
33.0577
 31
0.0
  0
LINE
  8
0
 62
     0
 10
105.811
 20
33.0577
 30
0.0
 11
115.441
 21
27.7082
 31
0.0
  0
LINE
  8
0
 62
     0
 10
115.441
 20
27.7082
 30
0.0
 11
125.607
 21
21.7661
 31
0.0
  0
LINE
  8
0
 62
     0
 10
125.607
 20
21.7661
 30
0.0
 11
136.32
 21
15.2067
 31
0.0
  0
LINE
  8
0
 62
     0
 10
136.32
 20
15.2067
 30
0.0
 11
147.589
 21
8.00227
 31
0.0
  0
LINE
  8
0
 62
     0
 10
147.589
 20
8.00227
 30
0.0
 11
159.432
 21
0.129536
 31
0.0
  0
ENDSEC
  0
EOF
